
<svg xmlns="http://www.w3.org/2000/svg" xmlns:xlink="http://www.w3.org/1999/xlink" contentStyleType="text/css" data-diagram-type="SEQUENCE" height="801px" preserveAspectRatio="none" style="width:1250px;height:801px;background:#FFFFFF;" version="1.1" viewBox="0 0 1250 801" width="1250px" zoomAndPan="magnify"><defs/><g><g><title>main</title><rect fill="#FFFFFF" height="711.2813" style="stroke:#181818;stroke-width:1;" width="10" x="24.4897" y="46.2969"/></g><g><title>GetGif</title><rect fill="#FFFFFF" height="462.1875" style="stroke:#181818;stroke-width:1;" width="10" x="343.5259" y="108.7266"/></g><g><title>GifImage</title><rect fill="#FFFFFF" height="71.2656" style="stroke:#181818;stroke-width:1;" width="10" x="697.0635" y="179.1563"/></g><g><title>GifImage</title><rect fill="#FFFFFF" height="64.2656" style="stroke:#181818;stroke-width:1;" width="10" x="697.0635" y="341.9844"/></g><g><title>GifImage</title><rect fill="#FFFFFF" height="29.1328" style="stroke:#181818;stroke-width:1;" width="10" x="697.0635" y="477.5156"/></g><g><title>&lt;color:blue&gt;0x1234&lt;/color&gt;</title><rect fill="#FFFFFF" height="667.1484" style="stroke:#181818;stroke-width:1;" width="10" x="1206.1685" y="46.2969"/></g><g><title>main</title><rect fill="#000000" fill-opacity="0.00000" height="730.2813" width="8" x="25.4897" y="36.2969"/><line style="stroke:#181818;stroke-width:0.5;stroke-dasharray:5.0,5.0;" x1="29" x2="29" y1="36.2969" y2="766.5781"/></g><g><title>GetGif</title><rect fill="#000000" fill-opacity="0.00000" height="730.2813" width="8" x="344.5259" y="36.2969"/><line style="stroke:#181818;stroke-width:0.5;stroke-dasharray:5.0,5.0;" x1="348.2168" x2="348.2168" y1="36.2969" y2="766.5781"/></g><g><title>GifImage</title><rect fill="#000000" fill-opacity="0.00000" height="730.2813" width="8" x="698.0635" y="36.2969"/><line style="stroke:#181818;stroke-width:0.5;stroke-dasharray:5.0,5.0;" x1="701.3071" x2="701.3071" y1="36.2969" y2="766.5781"/></g><g><title>char* buffer &lt;color:orange&gt;@0x601000&lt;/color&gt;</title><rect fill="#000000" fill-opacity="0.00000" height="506.6406" width="8" x="974.7725" y="259.9375"/><line style="stroke:#181818;stroke-width:0.5;stroke-dasharray:5.0,5.0;" x1="978.0586" x2="978.0586" y1="259.9375" y2="766.5781"/></g><g><title>&lt;color:green&gt;@0x5678 &lt;/color&gt;</title><rect fill="#000000" fill-opacity="0.00000" height="619.2031" width="8" x="1121.1221" y="147.375"/><line style="stroke:#181818;stroke-width:0.5;stroke-dasharray:5.0,5.0;" x1="1124.4863" x2="1124.4863" y1="147.375" y2="766.5781"/></g><g><title>&lt;color:blue&gt;0x1234&lt;/color&gt;</title><rect fill="#000000" fill-opacity="0.00000" height="689.6328" width="8" x="1207.1685" y="76.9453"/><line style="stroke:#181818;stroke-width:0.5;stroke-dasharray:5.0,5.0;" x1="1210.7578" x2="1210.7578" y1="76.9453" y2="766.5781"/></g><g class="participant participant-head" data-participant="main"><rect fill="#E2E2F0" height="30.2969" rx="2.5" ry="2.5" style="stroke:#181818;stroke-width:0.5;" width="48.9795" x="5" y="5"/><text fill="#000000" font-family="sans-serif" font-size="14" lengthAdjust="spacing" textLength="34.9795" x="12" y="24.9951">main</text></g><g class="participant participant-tail" data-participant="main"><rect fill="#E2E2F0" height="30.2969" rx="2.5" ry="2.5" style="stroke:#181818;stroke-width:0.5;" width="48.9795" x="5" y="765.5781"/><text fill="#000000" font-family="sans-serif" font-size="14" lengthAdjust="spacing" textLength="34.9795" x="12" y="785.5732">main</text></g><g class="participant participant-head" data-participant="GetGif"><rect fill="#E2E2F0" height="30.2969" rx="2.5" ry="2.5" style="stroke:#181818;stroke-width:0.5;" width="58.6182" x="319.2168" y="5"/><text fill="#000000" font-family="sans-serif" font-size="14" lengthAdjust="spacing" textLength="44.6182" x="326.2168" y="24.9951">GetGif</text></g><g class="participant participant-tail" data-participant="GetGif"><rect fill="#E2E2F0" height="30.2969" rx="2.5" ry="2.5" style="stroke:#181818;stroke-width:0.5;" width="58.6182" x="319.2168" y="765.5781"/><text fill="#000000" font-family="sans-serif" font-size="14" lengthAdjust="spacing" textLength="44.6182" x="326.2168" y="785.5732">GetGif</text></g><g class="participant participant-head" data-participant="GifImage"><rect fill="#E2E2F0" height="30.2969" rx="2.5" ry="2.5" style="stroke:#181818;stroke-width:0.5;" width="77.5127" x="663.3071" y="5"/><text fill="#000000" font-family="sans-serif" font-size="14" lengthAdjust="spacing" textLength="63.5127" x="670.3071" y="24.9951">GifImage</text></g><g class="participant participant-tail" data-participant="GifImage"><rect fill="#E2E2F0" height="30.2969" rx="2.5" ry="2.5" style="stroke:#181818;stroke-width:0.5;" width="77.5127" x="663.3071" y="765.5781"/><text fill="#000000" font-family="sans-serif" font-size="14" lengthAdjust="spacing" textLength="63.5127" x="670.3071" y="785.5732">GifImage</text></g><g class="participant participant-tail" data-participant="Buffer"><rect fill="#E2E2F0" height="30.2969" rx="2.5" ry="2.5" style="stroke:#181818;stroke-width:0.5;" width="187.4277" x="885.0586" y="765.5781"/><text fill="#000000" font-family="sans-serif" font-size="14" lengthAdjust="spacing" textLength="84.3418" x="892.0586" y="785.5732">char* buffer</text><text fill="#FFA500" font-family="sans-serif" font-size="14" lengthAdjust="spacing" textLength="84.6357" x="980.8506" y="785.5732">@0x601000</text></g><g class="participant participant-tail" data-participant="Temp"><rect fill="#E2E2F0" height="30.2969" rx="2.5" ry="2.5" style="stroke:#181818;stroke-width:0.5;" width="85.2715" x="1082.4863" y="765.5781"/><text fill="#008000" font-family="sans-serif" font-size="14" lengthAdjust="spacing" textLength="66.8213" x="1089.4863" y="785.5732">@0x5678</text></g><g class="participant participant-tail" data-participant="Gif"><rect fill="#E2E2F0" height="30.2969" rx="2.5" ry="2.5" style="stroke:#181818;stroke-width:0.5;" width="66.8213" x="1177.7578" y="765.5781"/><text fill="#0000FF" font-family="sans-serif" font-size="14" lengthAdjust="spacing" textLength="52.8213" x="1184.7578" y="785.5732">0x1234</text></g><g><title>main</title><rect fill="#FFFFFF" height="711.2813" style="stroke:#181818;stroke-width:1;" width="10" x="24.4897" y="46.2969"/></g><g><title>GetGif</title><rect fill="#FFFFFF" height="462.1875" style="stroke:#181818;stroke-width:1;" width="10" x="343.5259" y="108.7266"/></g><g><title>GifImage</title><rect fill="#FFFFFF" height="71.2656" style="stroke:#181818;stroke-width:1;" width="10" x="697.0635" y="179.1563"/></g><g><title>GifImage</title><rect fill="#FFFFFF" height="64.2656" style="stroke:#181818;stroke-width:1;" width="10" x="697.0635" y="341.9844"/></g><g><title>GifImage</title><rect fill="#FFFFFF" height="29.1328" style="stroke:#181818;stroke-width:1;" width="10" x="697.0635" y="477.5156"/></g><g><title>&lt;color:blue&gt;0x1234&lt;/color&gt;</title><rect fill="#FFFFFF" height="667.1484" style="stroke:#181818;stroke-width:1;" width="10" x="1206.1685" y="46.2969"/></g><g class="message" data-participant-1="main" data-participant-2="Gif"><polygon fill="#181818" points="1160.7578,63.4297,1170.7578,67.4297,1160.7578,71.4297,1164.7578,67.4297" style="stroke:#181818;stroke-width:1;"/><line style="stroke:#181818;stroke-width:1;" x1="34.4897" x2="1166.7578" y1="67.4297" y2="67.4297"/><text fill="#000000" font-family="sans-serif" font-size="13" font-weight="bold" lengthAdjust="spacing" textLength="9.0454" x="41.4897" y="62.3638">1</text><text fill="#0000FF" font-family="sans-serif" font-size="13" lengthAdjust="spacing" textLength="65.7681" x="54.5352" y="62.3638">mainGif =</text></g><rect fill="#E2E2F0" height="30.2969" rx="2.5" ry="2.5" style="stroke:#181818;stroke-width:0.5;" width="66.8213" x="1177.7578" y="46.2969"/><text fill="#0000FF" font-family="sans-serif" font-size="14" lengthAdjust="spacing" textLength="52.8213" x="1184.7578" y="66.292">0x1234</text><g class="message" data-participant-1="main" data-participant-2="GetGif"><polygon fill="#181818" points="331.5259,104.7266,341.5259,108.7266,331.5259,112.7266,335.5259,108.7266" style="stroke:#181818;stroke-width:1;"/><line style="stroke:#181818;stroke-width:1;" x1="34.4897" x2="337.5259" y1="108.7266" y2="108.7266"/><text fill="#000000" font-family="sans-serif" font-size="13" font-weight="bold" lengthAdjust="spacing" textLength="9.0454" x="41.4897" y="103.6606">2</text><text fill="#000000" font-family="sans-serif" font-size="13" lengthAdjust="spacing" textLength="46.5029" x="54.5352" y="103.6606">GetGif(</text><text fill="#0000FF" font-family="sans-serif" font-size="13" lengthAdjust="spacing" textLength="60.8804" x="101.0381" y="103.6606">&amp;mainGif</text><text fill="#000000" font-family="sans-serif" font-size="13" lengthAdjust="spacing" textLength="5.0718" x="161.9185" y="103.6606">)</text></g><g class="message" data-participant-1="GetGif" data-participant-2="Temp"><polygon fill="#181818" points="1070.4863,133.8594,1080.4863,137.8594,1070.4863,141.8594,1074.4863,137.8594" style="stroke:#181818;stroke-width:1;"/><line style="stroke:#181818;stroke-width:1;" x1="353.5259" x2="1076.4863" y1="137.8594" y2="137.8594"/><text fill="#000000" font-family="sans-serif" font-size="13" font-weight="bold" lengthAdjust="spacing" textLength="9.0454" x="360.5259" y="132.7935">3</text><text fill="#008000" font-family="sans-serif" font-size="13" lengthAdjust="spacing" textLength="67.2979" x="373.5713" y="132.7935">tempGif =</text></g><rect fill="#E2E2F0" height="30.2969" rx="2.5" ry="2.5" style="stroke:#181818;stroke-width:0.5;" width="85.2715" x="1082.4863" y="116.7266"/><text fill="#008000" font-family="sans-serif" font-size="14" lengthAdjust="spacing" textLength="66.8213" x="1089.4863" y="136.7217">@0x5678</text><g class="message" data-participant-1="GetGif" data-participant-2="GifImage"><polygon fill="#181818" points="685.0635,175.1563,695.0635,179.1563,685.0635,183.1563,689.0635,179.1563" style="stroke:#181818;stroke-width:1;"/><line style="stroke:#181818;stroke-width:1;" x1="353.5259" x2="691.0635" y1="179.1563" y2="179.1563"/><text fill="#000000" font-family="sans-serif" font-size="13" font-weight="bold" lengthAdjust="spacing" textLength="9.0454" x="360.5259" y="174.0903">4</text><text fill="#000000" font-family="sans-serif" font-size="13" lengthAdjust="spacing" textLength="131.7837" x="373.5713" y="174.0903">GifImage::GifImage(</text><text fill="#008000" font-family="sans-serif" font-size="13" lengthAdjust="spacing" textLength="62.4102" x="505.355" y="174.0903">&amp;tempGif</text><text fill="#000000" font-family="sans-serif" font-size="13" lengthAdjust="spacing" textLength="87.7246" x="567.7651" y="174.0903">, "GIF89a", 6)</text></g><g class="message" data-participant-1="GifImage" data-participant-2="GifImage"><line style="stroke:#181818;stroke-width:1;" x1="707.0635" x2="749.0635" y1="208.2891" y2="208.2891"/><line style="stroke:#181818;stroke-width:1;" x1="749.0635" x2="749.0635" y1="208.2891" y2="221.2891"/><line style="stroke:#181818;stroke-width:1;" x1="708.0635" x2="749.0635" y1="221.2891" y2="221.2891"/><polygon fill="#181818" points="718.0635,217.2891,708.0635,221.2891,718.0635,225.2891,714.0635,221.2891" style="stroke:#181818;stroke-width:1;"/><text fill="#000000" font-family="sans-serif" font-size="13" font-weight="bold" lengthAdjust="spacing" textLength="9.0454" x="714.0635" y="203.2231">5</text><text fill="#000000" font-family="sans-serif" font-size="13" lengthAdjust="spacing" textLength="64.3081" x="727.1089" y="203.2231">char[6] at</text><text fill="#FFA500" font-family="sans-serif" font-size="13" lengthAdjust="spacing" textLength="65.5903" x="795.5493" y="203.2231">0x601000</text></g><g class="message" data-participant-1="GifImage" data-participant-2="Buffer"><polygon fill="#181818" points="873.0586,246.4219,883.0586,250.4219,873.0586,254.4219,877.0586,250.4219" style="stroke:#181818;stroke-width:1;"/><line style="stroke:#181818;stroke-width:1;" x1="702.0635" x2="879.0586" y1="250.4219" y2="250.4219"/><text fill="#000000" font-family="sans-serif" font-size="13" font-weight="bold" lengthAdjust="spacing" textLength="9.0454" x="709.0635" y="245.356">6</text><text fill="#000000" font-family="sans-serif" font-size="13" lengthAdjust="spacing" textLength="140.9497" x="722.1089" y="245.356">memcpy("GIF89a", 6)</text></g><rect fill="#E2E2F0" height="30.2969" rx="2.5" ry="2.5" style="stroke:#181818;stroke-width:0.5;" width="187.4277" x="885.0586" y="229.2891"/><text fill="#000000" font-family="sans-serif" font-size="14" lengthAdjust="spacing" textLength="84.3418" x="892.0586" y="249.2842">char* buffer</text><text fill="#FFA500" font-family="sans-serif" font-size="14" lengthAdjust="spacing" textLength="84.6357" x="980.8506" y="249.2842">@0x601000</text><path d="M707,275.5859 L707,315.5859 L870,315.5859 L870,285.5859 L860,275.5859 L707,275.5859" fill="#FEFFDD" style="stroke:#181818;stroke-width:0.5;"/><path d="M860,275.5859 L860,285.5859 L870,285.5859 L860,275.5859" fill="#FEFFDD" style="stroke:#181818;stroke-width:0.5;"/><text fill="#000000" font-family="sans-serif" font-size="13" lengthAdjust="spacing" textLength="118.752" x="713" y="292.6528">Allocated by temp</text><text fill="#FFA500" font-family="sans-serif" font-size="13" lengthAdjust="spacing" textLength="65.5903" x="713" y="307.7856">0x601000</text><text fill="#000000" font-family="sans-serif" font-size="13" lengthAdjust="spacing" textLength="72.8774" x="782.7227" y="307.7856">= "GIF89a"</text><g class="message" data-participant-1="GetGif" data-participant-2="GifImage"><polygon fill="#181818" points="685.0635,337.9844,695.0635,341.9844,685.0635,345.9844,689.0635,341.9844" style="stroke:#181818;stroke-width:1;"/><line style="stroke:#181818;stroke-width:1;" x1="353.5259" x2="691.0635" y1="341.9844" y2="341.9844"/><text fill="#000000" font-family="sans-serif" font-size="13" font-weight="bold" lengthAdjust="spacing" textLength="9.0454" x="360.5259" y="336.9185">7</text><text fill="#000000" font-family="sans-serif" font-size="13" lengthAdjust="spacing" textLength="245.3115" x="373.5713" y="336.9185">GifImage::GifImage(const GifImage&amp;)</text><text fill="#0000FF" font-family="sans-serif" font-size="13" lengthAdjust="spacing" textLength="62.0483" x="623.0151" y="336.9185">@0x1234</text></g><g class="message" data-participant-1="GifImage" data-participant-2="Buffer"><polygon fill="#181818" points="966.7725,367.1172,976.7725,371.1172,966.7725,375.1172,970.7725,371.1172" style="stroke:#181818;stroke-width:1;"/><line style="stroke:#181818;stroke-width:1;" x1="707.0635" x2="972.7725" y1="371.1172" y2="371.1172"/><text fill="#000000" font-family="sans-serif" font-size="13" font-weight="bold" lengthAdjust="spacing" textLength="9.0454" x="714.0635" y="366.0513">8</text><text fill="#000000" font-family="sans-serif" font-size="13" lengthAdjust="spacing" textLength="233.5176" x="727.1089" y="366.0513">buffer = temp.buffer (shallow copy)</text></g><g class="message" data-participant-1="GifImage" data-participant-2="GifImage"><line style="stroke:#181818;stroke-width:1;" x1="707.0635" x2="749.0635" y1="405.25" y2="405.25"/><line style="stroke:#181818;stroke-width:1;" x1="749.0635" x2="749.0635" y1="405.25" y2="418.25"/><line style="stroke:#181818;stroke-width:1;" x1="702.0635" x2="749.0635" y1="418.25" y2="418.25"/><polygon fill="#181818" points="712.0635,414.25,702.0635,418.25,712.0635,422.25,708.0635,418.25" style="stroke:#181818;stroke-width:1;"/><text fill="#000000" font-family="sans-serif" font-size="13" font-weight="bold" lengthAdjust="spacing" textLength="9.0454" x="714.0635" y="400.1841">9</text><text fill="#000000" font-family="sans-serif" font-size="13" lengthAdjust="spacing" textLength="52.6348" x="727.1089" y="400.1841">size = 6</text></g><path d="M707,426.25 L707,451.25 L990,451.25 L990,436.25 L980,426.25 L707,426.25" fill="#FEFFDD" style="stroke:#181818;stroke-width:0.5;"/><path d="M980,426.25 L980,436.25 L990,436.25 L980,426.25" fill="#FEFFDD" style="stroke:#181818;stroke-width:0.5;"/><text fill="#000000" font-family="sans-serif" font-size="13" lengthAdjust="spacing" textLength="180.1719" x="713" y="443.3169">Shallow copy: shares buffer</text><text fill="#FFA500" font-family="sans-serif" font-size="13" lengthAdjust="spacing" textLength="78.5903" x="897.3042" y="443.3169">@0x601000</text><g class="message" data-participant-1="GetGif" data-participant-2="GifImage"><polygon fill="#181818" points="685.0635,473.5156,695.0635,477.5156,685.0635,481.5156,689.0635,477.5156" style="stroke:#181818;stroke-width:1;"/><line style="stroke:#181818;stroke-width:1;" x1="353.5259" x2="691.0635" y1="477.5156" y2="477.5156"/><text fill="#000000" font-family="sans-serif" font-size="13" font-weight="bold" lengthAdjust="spacing" textLength="18.0908" x="360.5259" y="472.4497">10</text><text fill="#000000" font-family="sans-serif" font-size="13" lengthAdjust="spacing" textLength="80.0122" x="382.6167" y="472.4497">~GifImage()</text><text fill="#008000" font-family="sans-serif" font-size="13" lengthAdjust="spacing" textLength="62.0483" x="466.7612" y="472.4497">@0x5678</text></g><g class="message" data-participant-1="GifImage" data-participant-2="Buffer"><polygon fill="#181818" points="966.7725,502.6484,976.7725,506.6484,966.7725,510.6484,970.7725,506.6484" style="stroke:#181818;stroke-width:1;"/><line style="stroke:#181818;stroke-width:1;" x1="702.0635" x2="972.7725" y1="506.6484" y2="506.6484"/><text fill="#000000" font-family="sans-serif" font-size="13" font-weight="bold" lengthAdjust="spacing" textLength="18.0908" x="709.0635" y="501.5825">11</text><text fill="#000000" font-family="sans-serif" font-size="13" lengthAdjust="spacing" textLength="94.2183" x="731.1543" y="501.5825">delete[] buffer</text><text fill="#FFA500" font-family="sans-serif" font-size="13" lengthAdjust="spacing" textLength="78.5903" x="829.5049" y="501.5825">@0x601000</text></g><line style="stroke:#A80036;stroke-width:2;" x1="969.7725" x2="987.7725" y1="497.6484" y2="515.6484"/><line style="stroke:#A80036;stroke-width:2;" x1="969.7725" x2="987.7725" y1="515.6484" y2="497.6484"/><line style="stroke:#A80036;stroke-width:2;" x1="1116.1221" x2="1134.1221" y1="497.6484" y2="515.6484"/><line style="stroke:#A80036;stroke-width:2;" x1="1116.1221" x2="1134.1221" y1="515.6484" y2="497.6484"/><path d="M707,519.6484 L707,544.6484 L992,544.6484 L992,529.6484 L982,519.6484 L707,519.6484" fill="#FEFFDD" style="stroke:#181818;stroke-width:0.5;"/><path d="M982,519.6484 L982,529.6484 L992,529.6484 L982,519.6484" fill="#FEFFDD" style="stroke:#181818;stroke-width:0.5;"/><text fill="#000000" font-family="sans-serif" font-size="13" lengthAdjust="spacing" textLength="155.4922" x="713" y="536.7153">⚠️ buffer now dangling (</text><text fill="#FFA500" font-family="sans-serif" font-size="13" lengthAdjust="spacing" textLength="65.5903" x="868.4922" y="536.7153">0x601000</text><text fill="#000000" font-family="sans-serif" font-size="13" lengthAdjust="spacing" textLength="39.2412" x="938.2148" y="536.7153">freed)</text><g class="message" data-participant-1="GetGif" data-participant-2="main"><polygon fill="#181818" points="45.4897,566.9141,35.4897,570.9141,45.4897,574.9141,41.4897,570.9141" style="stroke:#181818;stroke-width:1;"/><line style="stroke:#181818;stroke-width:1;stroke-dasharray:2.0,2.0;" x1="39.4897" x2="347.5259" y1="570.9141" y2="570.9141"/><text fill="#000000" font-family="sans-serif" font-size="13" font-weight="bold" lengthAdjust="spacing" textLength="18.0908" x="51.4897" y="565.8481">12</text><text fill="#000000" font-family="sans-serif" font-size="13" lengthAdjust="spacing" textLength="40.2632" x="73.5806" y="565.8481">return</text></g><g class="message" data-participant-1="main" data-participant-2="main"><line style="stroke:#181818;stroke-width:1;" x1="34.4897" x2="76.4897" y1="600.0469" y2="600.0469"/><line style="stroke:#181818;stroke-width:1;" x1="76.4897" x2="76.4897" y1="600.0469" y2="613.0469"/><line style="stroke:#181818;stroke-width:1;" x1="35.4897" x2="76.4897" y1="613.0469" y2="613.0469"/><polygon fill="#181818" points="45.4897,609.0469,35.4897,613.0469,45.4897,617.0469,41.4897,613.0469" style="stroke:#181818;stroke-width:1;"/><text fill="#000000" font-family="sans-serif" font-size="13" font-weight="bold" lengthAdjust="spacing" textLength="18.0908" x="41.4897" y="594.981">13</text><text fill="#000000" font-family="sans-serif" font-size="13" lengthAdjust="spacing" textLength="121.145" x="63.5806" y="594.981">access gif.size = 6</text></g><g class="message" data-participant-1="main" data-participant-2="main"><line style="stroke:#181818;stroke-width:1;" x1="34.4897" x2="76.4897" y1="642.1797" y2="642.1797"/><line style="stroke:#181818;stroke-width:1;" x1="76.4897" x2="76.4897" y1="642.1797" y2="655.1797"/><line style="stroke:#181818;stroke-width:1;" x1="35.4897" x2="76.4897" y1="655.1797" y2="655.1797"/><polygon fill="#181818" points="45.4897,651.1797,35.4897,655.1797,45.4897,659.1797,41.4897,655.1797" style="stroke:#181818;stroke-width:1;"/><text fill="#000000" font-family="sans-serif" font-size="13" font-weight="bold" lengthAdjust="spacing" textLength="18.0908" x="41.4897" y="637.1138">14</text><text fill="#000000" font-family="sans-serif" font-size="13" lengthAdjust="spacing" textLength="122.5225" x="63.5806" y="637.1138">access gif.buffer →</text><text fill="#FFA500" font-family="sans-serif" font-size="13" lengthAdjust="spacing" textLength="65.5903" x="190.2354" y="637.1138">0x601000</text><text fill="#000000" font-family="sans-serif" font-size="13" lengthAdjust="spacing" textLength="66.5679" x="259.958" y="637.1138">(dangling)</text></g><g class="message" data-participant-1="main" data-participant-2="GifImage"><polygon fill="#181818" points="690.0635,680.3125,700.0635,684.3125,690.0635,688.3125,694.0635,684.3125" style="stroke:#181818;stroke-width:1;"/><line style="stroke:#181818;stroke-width:1;" x1="34.4897" x2="696.0635" y1="684.3125" y2="684.3125"/><text fill="#000000" font-family="sans-serif" font-size="13" font-weight="bold" lengthAdjust="spacing" textLength="18.0908" x="41.4897" y="679.2466">15</text><text fill="#000000" font-family="sans-serif" font-size="13" lengthAdjust="spacing" textLength="80.0122" x="63.5806" y="679.2466">~GifImage()</text><text fill="#0000FF" font-family="sans-serif" font-size="13" lengthAdjust="spacing" textLength="62.0483" x="147.7251" y="679.2466">@0x1234</text></g><g class="message" data-participant-1="GifImage" data-participant-2="Buffer"><polygon fill="#181818" points="966.7725,709.4453,976.7725,713.4453,966.7725,717.4453,970.7725,713.4453" style="stroke:#181818;stroke-width:1;"/><line style="stroke:#181818;stroke-width:1;" x1="702.0635" x2="972.7725" y1="713.4453" y2="713.4453"/><text fill="#000000" font-family="sans-serif" font-size="13" font-weight="bold" lengthAdjust="spacing" textLength="18.0908" x="709.0635" y="708.3794">16</text><text fill="#000000" font-family="sans-serif" font-size="13" lengthAdjust="spacing" textLength="94.2183" x="731.1543" y="708.3794">delete[] buffer</text><text fill="#FFA500" font-family="sans-serif" font-size="13" lengthAdjust="spacing" textLength="78.5903" x="829.5049" y="708.3794">@0x601000</text><text fill="#000000" font-family="sans-serif" font-size="13" lengthAdjust="spacing" textLength="7.8013" x="912.2275" y="708.3794">❌</text></g><path d="M707,726.4453 L707,751.4453 L982,751.4453 L982,736.4453 L972,726.4453 L707,726.4453" fill="#FEFFDD" style="stroke:#181818;stroke-width:0.5;"/><path d="M972,726.4453 L972,736.4453 L982,736.4453 L972,726.4453" fill="#FEFFDD" style="stroke:#181818;stroke-width:0.5;"/><text fill="#000000" font-family="sans-serif" font-size="13" lengthAdjust="spacing" textLength="254.0522" x="713" y="743.5122">❌ Double delete → undefined behavior!</text><line style="stroke:#A80036;stroke-width:2;" x1="1202.1685" x2="1220.1685" y1="704.4453" y2="722.4453"/><line style="stroke:#A80036;stroke-width:2;" x1="1202.1685" x2="1220.1685" y1="722.4453" y2="704.4453"/><!--SRC=[hLHBRjim4Dtp55Cl3Ac8KwKVDpKS8osA6bctko0BMXh912JIeAWqxgBBhW8KwB90W1wZv_45UeMI4lMX8Tafq9N8eURDl3SVMYZ1Yso5af0DbOg5R4EvWemoxXYMg9OiTaoZS4tbKrWLSOmIvg58XPm9INc2YylWRXgS1K4mVrRQ5oEWERmhVtLnMNoLqGHTvEh78P-HZPL8H6v2lPg-FWSdqYVCDhq-gxJ0HN1tzlp5IyV1a2CqLEoMAgpear2YkPYdviLSp2jC5kOCC-W2cnTZlMYo8QJzlPHGUrG7h-iujfwrcz-9M2dVf5DIirWQrLpRB2f9bBRjfz5wr9ARJEnnDgjFdWCqjaWrp0cCbbSVpj_GqGbCVKULgega0NS3cLQvdju0LNkDijydDKjRTWUliccq3BDmi_MSN0WNsasoPAr0n6r6RzDKX1enWjKM31q0SZW5BLkDJ917O819X7ra7wbfA7ZUjlhOTthcqkt6Ow8s8jYvkoX9dTgRbw-f9lmPGh7P-fhgG3rozWMrwtHGDe2F7IJje0k8-IE7lPNj7tJxsiZbGz-07n2eLvy8KrHuVVFOd2FCbHJRflFgUpbllJG6fDlz_FNdz_SwBDSIHZfaodW2tf7EYpNXoE_8L-wE-MJIBW-9gf3SISWkY7hFbDyPq334F8U4nQTDjOT_iTdkllquCg3WrMnyqjs41yhOs-R_esQmUxWVBiF3FRmNnIf52rkIAtY4CUDc7U2QtZ8XdtI7l2gvnlWB]--></g></svg>