<svg xmlns="http://www.w3.org/2000/svg" xmlns:xlink="http://www.w3.org/1999/xlink" contentStyleType="text/css" data-diagram-type="SEQUENCE" height="445px" preserveAspectRatio="none" style="width:858px;height:445px;background:#FFFFFF;" version="1.1" viewBox="0 0 858 445" width="858px" zoomAndPan="magnify"><defs/><g><g><title>main</title><rect fill="#000000" fill-opacity="0.00000" height="280.8125" width="8" x="19.1724" y="82.6094"/><line style="stroke:#181818;stroke-width:0.5;stroke-dasharray:5.0,5.0;" x1="23" x2="23" y1="82.6094" y2="363.4219"/></g><g><title>GetGif()</title><rect fill="#000000" fill-opacity="0.00000" height="280.8125" width="8" x="134.915" y="82.6094"/><line style="stroke:#181818;stroke-width:0.5;stroke-dasharray:5.0,5.0;" x1="138.0254" x2="138.0254" y1="82.6094" y2="363.4219"/></g><g><title>GifImage gif (main)</title><rect fill="#000000" fill-opacity="0.00000" height="280.8125" width="8" x="386.4976" y="82.6094"/><line style="stroke:#181818;stroke-width:0.5;stroke-dasharray:5.0,5.0;" x1="389.9805" x2="389.9805" y1="82.6094" y2="363.4219"/></g><g class="participant participant-head" data-participant="main"><text fill="#000000" font-family="sans-serif" font-size="14" lengthAdjust="spacing" textLength="30.3447" x="5" y="79.5332">main</text><ellipse cx="23.1724" cy="13.5" fill="#E2E2F0" rx="8" ry="8" style="stroke:#181818;stroke-width:0.5;"/><path d="M23.1724,21.5 L23.1724,48.5 M10.1724,29.5 L36.1724,29.5 M23.1724,48.5 L10.1724,63.5 M23.1724,48.5 L36.1724,63.5" fill="none" style="stroke:#181818;stroke-width:0.5;"/></g><g class="participant participant-tail" data-participant="main"><text fill="#000000" font-family="sans-serif" font-size="14" lengthAdjust="spacing" textLength="30.3447" x="5" y="376.9551">main</text><ellipse cx="23.1724" cy="388.5313" fill="#E2E2F0" rx="8" ry="8" style="stroke:#181818;stroke-width:0.5;"/><path d="M23.1724,396.5313 L23.1724,423.5313 M10.1724,404.5313 L36.1724,404.5313 M23.1724,423.5313 L10.1724,438.5313 M23.1724,423.5313 L36.1724,438.5313" fill="none" style="stroke:#181818;stroke-width:0.5;"/></g><g class="participant participant-head" data-participant="GetGif"><rect fill="#E2E2F0" height="31.6094" rx="2.5" ry="2.5" style="stroke:#181818;stroke-width:0.5;" width="63.7793" x="107.0254" y="50"/><text fill="#000000" font-family="sans-serif" font-size="14" lengthAdjust="spacing" textLength="49.7793" x="114.0254" y="71.5332">GetGif()</text></g><g class="participant participant-tail" data-participant="GetGif"><rect fill="#E2E2F0" height="31.6094" rx="2.5" ry="2.5" style="stroke:#181818;stroke-width:0.5;" width="63.7793" x="107.0254" y="362.4219"/><text fill="#000000" font-family="sans-serif" font-size="14" lengthAdjust="spacing" textLength="49.7793" x="114.0254" y="383.9551">GetGif()</text></g><g class="participant participant-head" data-participant="GifMain"><rect fill="#E2E2F0" height="31.6094" rx="2.5" ry="2.5" style="stroke:#181818;stroke-width:0.5;" width="133.0342" x="323.9805" y="50"/><text fill="#000000" font-family="sans-serif" font-size="14" lengthAdjust="spacing" textLength="119.0342" x="330.9805" y="71.5332">GifImage gif (main)</text></g><g class="participant participant-tail" data-participant="GifMain"><rect fill="#E2E2F0" height="31.6094" rx="2.5" ry="2.5" style="stroke:#181818;stroke-width:0.5;" width="133.0342" x="323.9805" y="362.4219"/><text fill="#000000" font-family="sans-serif" font-size="14" lengthAdjust="spacing" textLength="119.0342" x="330.9805" y="383.9551">GifImage gif (main)</text></g><g class="message" data-participant-1="main" data-participant-2="GetGif"><polygon fill="#181818" points="126.915,110.9609,136.915,114.9609,126.915,118.9609,130.915,114.9609" style="stroke:#181818;stroke-width:1;"/><line style="stroke:#181818;stroke-width:1;" x1="23.1724" x2="132.915" y1="114.9609" y2="114.9609"/><text fill="#000000" font-family="sans-serif" font-size="13" lengthAdjust="spacing" textLength="91.7427" x="30.1724" y="110.1045">call GetGif(&amp;gif)</text></g><path d="M28,127.9609 L28,153.9609 L329,153.9609 L329,137.9609 L319,127.9609 L28,127.9609" fill="#FEFFDD" style="stroke:#181818;stroke-width:0.5;"/><path d="M319,127.9609 L319,137.9609 L329,137.9609 L319,127.9609" fill="#FEFFDD" style="stroke:#181818;stroke-width:0.5;"/><text fill="#000000" font-family="sans-serif" font-size="13" lengthAdjust="spacing" textLength="280.3887" x="34" y="146.4561">Hidden return pointer passed:\n&amp;gif (0x7ffc1234)</text><g class="message" data-participant-1="GetGif" data-participant-2="GifMain"><polygon fill="#181818" points="378.4976,177.6641,388.4976,181.6641,378.4976,185.6641,382.4976,181.6641" style="stroke:#181818;stroke-width:1;"/><line style="stroke:#181818;stroke-width:1;" x1="138.915" x2="384.4976" y1="181.6641" y2="181.6641"/><text fill="#000000" font-family="sans-serif" font-size="13" lengthAdjust="spacing" textLength="227.5825" x="145.915" y="176.8076">GifImage::GifImage(const char*, size_t)</text></g><path d="M395,194.6641 L395,220.6641 L851,220.6641 L851,204.6641 L841,194.6641 L395,194.6641" fill="#FEFFDD" style="stroke:#181818;stroke-width:0.5;"/><path d="M841,194.6641 L841,204.6641 L851,204.6641 L841,194.6641" fill="#FEFFDD" style="stroke:#181818;stroke-width:0.5;"/><text fill="#000000" font-family="sans-serif" font-size="13" lengthAdjust="spacing" textLength="435.8872" x="401" y="213.1592">Constructs object directly in caller\nbuffer = new char[6]\nmemcpy "GIF89a"</text><g class="message" data-participant-1="GetGif" data-participant-2="main"><polygon fill="#181818" points="34.1724,244.3672,24.1724,248.3672,34.1724,252.3672,30.1724,248.3672" style="stroke:#181818;stroke-width:1;"/><line style="stroke:#181818;stroke-width:1;stroke-dasharray:2.0,2.0;" x1="28.1724" x2="137.915" y1="248.3672" y2="248.3672"/><text fill="#000000" font-family="sans-serif" font-size="13" lengthAdjust="spacing" textLength="33.96" x="40.1724" y="243.5107">return</text></g><g class="message" data-participant-1="main" data-participant-2="GifMain"><polygon fill="#181818" points="378.4976,274.7188,388.4976,278.7188,378.4976,282.7188,382.4976,278.7188" style="stroke:#181818;stroke-width:1;"/><line style="stroke:#181818;stroke-width:1;" x1="23.1724" x2="384.4976" y1="278.7188" y2="278.7188"/><text fill="#000000" font-family="sans-serif" font-size="13" lengthAdjust="spacing" textLength="38.3018" x="30.1724" y="273.8623">use gif</text></g><g class="message" data-participant-1="main" data-participant-2="GifMain"><polygon fill="#181818" points="378.4976,305.0703,388.4976,309.0703,378.4976,313.0703,382.4976,309.0703" style="stroke:#181818;stroke-width:1;"/><line style="stroke:#181818;stroke-width:1;" x1="23.1724" x2="384.4976" y1="309.0703" y2="309.0703"/><text fill="#000000" font-family="sans-serif" font-size="13" lengthAdjust="spacing" textLength="68.9927" x="30.1724" y="304.2139">~GifImage()</text></g><path d="M395,322.0703 L395,348.0703 L633,348.0703 L633,332.0703 L623,322.0703 L395,322.0703" fill="#FEFFDD" style="stroke:#181818;stroke-width:0.5;"/><path d="M623,322.0703 L623,332.0703 L633,332.0703 L623,322.0703" fill="#FEFFDD" style="stroke:#181818;stroke-width:0.5;"/><text fill="#000000" font-family="sans-serif" font-size="13" lengthAdjust="spacing" textLength="217.5215" x="401" y="340.5654">Destructor deletes buffer at 0x601000</text><!--SRC=[TP7DJiCm48JlUOfH3bMAG4e15OW45n2b1vw08EGwwzGeSI9x8reEF3jsVYfKbPEzzdhccxMGt5ZKGfke5PQrrAqmZ7X5lD8gcSSG3aDnrA3LkXObeTGAIH0OUxLw3MfHECB5m_WO6QIegh5APlxLF38D4wmkjun63H30YouACh34dJLe6ssOB5hX71LPRcQzNxgxKKekBg-kvn6P0a4fYaQhO3fGUDU9CykcNI8RunXoA-pPEPp-fWy-PfbI08-XsNQI7PhD9qb6eQrVgZsyViX4DZURJYbFUGz3Nxtos_8zDpNLijtxMQsVR-z4V8BKezO3vv3tpzWE2JhN3_d4pSyXql_yJpJW-rykg28cXn5MCDBTCbsaQNeW-mK0]--></g></svg>