<svg xmlns="http://www.w3.org/2000/svg" xmlns:xlink="http://www.w3.org/1999/xlink" contentStyleType="text/css" data-diagram-type="SEQUENCE" height="446px" preserveAspectRatio="none" style="width:470px;height:446px;background:#FFFFFF;" version="1.1" viewBox="0 0 470 446" width="470px" zoomAndPan="magnify"><defs/><g><g><title>main</title><rect fill="#000000" fill-opacity="0.00000" height="281.8672" width="8" x="19.1724" y="82.6094"/><line style="stroke:#181818;stroke-width:0.5;stroke-dasharray:5.0,5.0;" x1="23" x2="23" y1="82.6094" y2="364.4766"/></g><g><title>GetGifPtr()</title><rect fill="#000000" fill-opacity="0.00000" height="281.8672" width="8" x="145.0459" y="82.6094"/><line style="stroke:#181818;stroke-width:0.5;stroke-dasharray:5.0,5.0;" x1="148.2114" x2="148.2114" y1="82.6094" y2="364.4766"/></g><g><title>GifImage*</title><rect fill="#000000" fill-opacity="0.00000" height="281.8672" width="8" x="234.0044" y="82.6094"/><line style="stroke:#181818;stroke-width:0.5;stroke-dasharray:5.0,5.0;" x1="237.8804" x2="237.8804" y1="82.6094" y2="364.4766"/></g><g class="participant participant-head" data-participant="main"><text fill="#000000" font-family="sans-serif" font-size="14" lengthAdjust="spacing" textLength="30.3447" x="5" y="79.5332">main</text><ellipse cx="23.1724" cy="13.5" fill="#E2E2F0" rx="8" ry="8" style="stroke:#181818;stroke-width:0.5;"/><path d="M23.1724,21.5 L23.1724,48.5 M10.1724,29.5 L36.1724,29.5 M23.1724,48.5 L10.1724,63.5 M23.1724,48.5 L36.1724,63.5" fill="none" style="stroke:#181818;stroke-width:0.5;"/></g><g class="participant participant-tail" data-participant="main"><text fill="#000000" font-family="sans-serif" font-size="14" lengthAdjust="spacing" textLength="30.3447" x="5" y="378.0098">main</text><ellipse cx="23.1724" cy="389.5859" fill="#E2E2F0" rx="8" ry="8" style="stroke:#181818;stroke-width:0.5;"/><path d="M23.1724,397.5859 L23.1724,424.5859 M10.1724,405.5859 L36.1724,405.5859 M23.1724,424.5859 L10.1724,439.5859 M23.1724,424.5859 L36.1724,439.5859" fill="none" style="stroke:#181818;stroke-width:0.5;"/></g><g class="participant participant-head" data-participant="GetGifPtr"><rect fill="#E2E2F0" height="31.6094" rx="2.5" ry="2.5" style="stroke:#181818;stroke-width:0.5;" width="81.6689" x="108.2114" y="50"/><text fill="#000000" font-family="sans-serif" font-size="14" lengthAdjust="spacing" textLength="67.6689" x="115.2114" y="71.5332">GetGifPtr()</text></g><g class="participant participant-tail" data-participant="GetGifPtr"><rect fill="#E2E2F0" height="31.6094" rx="2.5" ry="2.5" style="stroke:#181818;stroke-width:0.5;" width="81.6689" x="108.2114" y="363.4766"/><text fill="#000000" font-family="sans-serif" font-size="14" lengthAdjust="spacing" textLength="67.6689" x="115.2114" y="385.0098">GetGifPtr()</text></g><g class="participant participant-head" data-participant="GifImagePtr"><rect fill="#E2E2F0" height="31.6094" rx="2.5" ry="2.5" style="stroke:#181818;stroke-width:0.5;" width="76.248" x="199.8804" y="50"/><text fill="#000000" font-family="sans-serif" font-size="14" lengthAdjust="spacing" textLength="62.248" x="206.8804" y="71.5332">GifImage*</text></g><g class="participant participant-tail" data-participant="GifImagePtr"><rect fill="#E2E2F0" height="31.6094" rx="2.5" ry="2.5" style="stroke:#181818;stroke-width:0.5;" width="76.248" x="199.8804" y="363.4766"/><text fill="#000000" font-family="sans-serif" font-size="14" lengthAdjust="spacing" textLength="62.248" x="206.8804" y="385.0098">GifImage*</text></g><g class="message" data-participant-1="main" data-participant-2="GetGifPtr"><polygon fill="#181818" points="137.0459,110.9609,147.0459,114.9609,137.0459,118.9609,141.0459,114.9609" style="stroke:#181818;stroke-width:1;"/><line style="stroke:#181818;stroke-width:1;" x1="23.1724" x2="143.0459" y1="114.9609" y2="114.9609"/><text fill="#000000" font-family="sans-serif" font-size="13" lengthAdjust="spacing" textLength="85.9536" x="30.1724" y="110.1045">call GetGifPtr()</text></g><path d="M154,127.9609 L154,235.9609 L393,235.9609 L393,137.9609 L383,127.9609 L154,127.9609" fill="#FEFFDD" style="stroke:#181818;stroke-width:0.5;"/><path d="M383,127.9609 L383,137.9609 L393,137.9609 L383,127.9609" fill="#FEFFDD" style="stroke:#181818;stroke-width:0.5;"/><text fill="#000000" font-family="sans-serif" font-size="13" lengthAdjust="spacing" textLength="218.2134" x="160" y="146.4561">- operator new(16) allocates GifImage</text><text fill="#000000" font-family="sans-serif" font-size="13" lengthAdjust="spacing" textLength="206.4639" x="160" y="162.8076">- constructs GifImage with "GIF89a"</text><text fill="#000000" font-family="sans-serif" font-size="13" lengthAdjust="spacing" textLength="213.167" x="160" y="179.1592">- allocates internal buffer new char[6]</text><text fill="#000000" font-family="sans-serif" font-size="13" lengthAdjust="spacing" textLength="163.1411" x="160" y="195.5107">- copies "GIF89a" into buffer</text><text fill="#000000" font-family="sans-serif" font-size="13" lengthAdjust="spacing" textLength="186.3926" x="160" y="211.8623">- returns raw pointer (GifImage*)</text><text fill="#000000" font-family="sans-serif" font-size="13" lengthAdjust="spacing" textLength="4.3291" x="160" y="228.2139">-</text><text fill="#000000" font-family="sans-serif" font-size="13" font-weight="bold" lengthAdjust="spacing" textLength="168.3208" x="167.9409" y="228.2139">No delete or destructor call</text><g class="message" data-participant-1="GetGifPtr" data-participant-2="main"><polygon fill="#181818" points="34.1724,259.4219,24.1724,263.4219,34.1724,267.4219,30.1724,263.4219" style="stroke:#181818;stroke-width:1;"/><line style="stroke:#181818;stroke-width:1;stroke-dasharray:2.0,2.0;" x1="28.1724" x2="148.0459" y1="263.4219" y2="263.4219"/><text fill="#000000" font-family="sans-serif" font-size="13" lengthAdjust="spacing" textLength="101.8735" x="40.1724" y="258.5654">returns GifImage*</text></g><g class="message" data-participant-1="main" data-participant-2="GifImagePtr"><polygon fill="#181818" points="226.0044,289.7734,236.0044,293.7734,226.0044,297.7734,230.0044,293.7734" style="stroke:#181818;stroke-width:1;"/><line style="stroke:#181818;stroke-width:1;" x1="23.1724" x2="232.0044" y1="293.7734" y2="293.7734"/><text fill="#000000" font-family="sans-serif" font-size="13" lengthAdjust="spacing" textLength="120.6753" x="30.1724" y="288.917">use GifImage pointer</text></g><path d="M243,306.7734 L243,348.7734 L463,348.7734 L463,316.7734 L453,306.7734 L243,306.7734" fill="#FEFFDD" style="stroke:#181818;stroke-width:0.5;"/><path d="M453,306.7734 L453,316.7734 L463,316.7734 L453,306.7734" fill="#FEFFDD" style="stroke:#181818;stroke-width:0.5;"/><text fill="#000000" font-family="sans-serif" font-size="13" lengthAdjust="spacing" textLength="199.7988" x="249" y="325.2686">- access internal buffer at offset +8</text><text fill="#000000" font-family="sans-serif" font-size="13" lengthAdjust="spacing" textLength="197.9961" x="249" y="341.6201">- no destruction or free called here</text><!--SRC=[PP4nRuCm48Lt_ueJ4r0nT8dI31qRPOcwLnskvXmi4HkT3_7tQpiKetJ3-BjtxpsZ5izmH-lKX2nMsmcTG7KcELlpALmt5M20xVo4MNEvuutQ1xIU4gQI9dJlPH9Ee74SOIUjd1S2jhT1m9lT4e0E_4ICoPsZfNuzD127lKQXiYXpshiWF6if_s6nCaHtbu_Z6rQPAiFM2R734NvcOoZBWnwGlmxVgzva8_OtdNY_ilcUIMPs0HWNc7nMWteheibCsruzz3HIZ1SJzFHm63zJ1MshoFMGmYjL-kbYMxcrqxPZaztrMKgEu1oef5xTFBUwUvNSXDOK_jU02JQ115wEcND-ysszIp4C4-K0rCD0J2N5Bm00]--></g></svg>