<svg xmlns="http://www.w3.org/2000/svg" xmlns:xlink="http://www.w3.org/1999/xlink" contentStyleType="text/css" data-diagram-type="SEQUENCE" height="528px" preserveAspectRatio="none" style="width:1351px;height:528px;background:#FFFFFF;" version="1.1" viewBox="0 0 1351 528" width="1351px" zoomAndPan="magnify"><defs/><g><g><title>main</title><rect fill="#000000" fill-opacity="0.00000" height="363.8672" width="8" x="19.1724" y="82.6094"/><line style="stroke:#181818;stroke-width:0.5;stroke-dasharray:5.0,5.0;" x1="23" x2="23" y1="82.6094" y2="446.4766"/></g><g><title>GifImage::GetGif() @ 0x1000</title><rect fill="#000000" fill-opacity="0.00000" height="363.8672" width="8" x="254.2129" y="82.6094"/><line style="stroke:#181818;stroke-width:0.5;stroke-dasharray:5.0,5.0;" x1="258.0728" x2="258.0728" y1="82.6094" y2="446.4766"/></g><g><title>std::make_unique&lt;GifImage&gt; @ 0x1100</title><rect fill="#000000" fill-opacity="0.00000" height="363.8672" width="8" x="495.1479" y="82.6094"/><line style="stroke:#181818;stroke-width:0.5;stroke-dasharray:5.0,5.0;" x1="498.353" x2="498.353" y1="82.6094" y2="446.4766"/></g><g><title>GifImage::GifImage(const char*, unsigned long) @ 0x1200</title><rect fill="#000000" fill-opacity="0.00000" height="363.8672" width="8" x="826.7549" y="82.6094"/><line style="stroke:#181818;stroke-width:0.5;stroke-dasharray:5.0,5.0;" x1="829.9429" x2="829.9429" y1="82.6094" y2="446.4766"/></g><g><title>std::unique_ptr&lt;GifImage&gt; @ 0x1300</title><rect fill="#000000" fill-opacity="0.00000" height="363.8672" width="8" x="1149.4136" y="82.6094"/><line style="stroke:#181818;stroke-width:0.5;stroke-dasharray:5.0,5.0;" x1="1152.5669" x2="1152.5669" y1="82.6094" y2="446.4766"/></g><g class="participant participant-head" data-participant="main"><text fill="#000000" font-family="sans-serif" font-size="14" lengthAdjust="spacing" textLength="30.3447" x="5" y="79.5332">main</text><ellipse cx="23.1724" cy="13.5" fill="#E2E2F0" rx="8" ry="8" style="stroke:#181818;stroke-width:0.5;"/><path d="M23.1724,21.5 L23.1724,48.5 M10.1724,29.5 L36.1724,29.5 M23.1724,48.5 L10.1724,63.5 M23.1724,48.5 L36.1724,63.5" fill="none" style="stroke:#181818;stroke-width:0.5;"/></g><g class="participant participant-tail" data-participant="main"><text fill="#000000" font-family="sans-serif" font-size="14" lengthAdjust="spacing" textLength="30.3447" x="5" y="460.0098">main</text><ellipse cx="23.1724" cy="471.5859" fill="#E2E2F0" rx="8" ry="8" style="stroke:#181818;stroke-width:0.5;"/><path d="M23.1724,479.5859 L23.1724,506.5859 M10.1724,487.5859 L36.1724,487.5859 M23.1724,506.5859 L10.1724,521.5859 M23.1724,506.5859 L36.1724,521.5859" fill="none" style="stroke:#181818;stroke-width:0.5;"/></g><g class="participant participant-head" data-participant="GetGif"><rect fill="#E2E2F0" height="31.6094" rx="2.5" ry="2.5" style="stroke:#181818;stroke-width:0.5;" width="196.2803" x="160.0728" y="50"/><text fill="#000000" font-family="sans-serif" font-size="14" lengthAdjust="spacing" textLength="182.2803" x="167.0728" y="71.5332">GifImage::GetGif() @ 0x1000</text></g><g class="participant participant-tail" data-participant="GetGif"><rect fill="#E2E2F0" height="31.6094" rx="2.5" ry="2.5" style="stroke:#181818;stroke-width:0.5;" width="196.2803" x="160.0728" y="445.4766"/><text fill="#000000" font-family="sans-serif" font-size="14" lengthAdjust="spacing" textLength="182.2803" x="167.0728" y="467.0098">GifImage::GetGif() @ 0x1000</text></g><g class="participant participant-head" data-participant="MakeUnique"><rect fill="#E2E2F0" height="31.6094" rx="2.5" ry="2.5" style="stroke:#181818;stroke-width:0.5;" width="265.5898" x="366.353" y="50"/><text fill="#000000" font-family="sans-serif" font-size="14" lengthAdjust="spacing" textLength="251.5898" x="373.353" y="71.5332">std::make_unique&lt;GifImage&gt; @ 0x1100</text></g><g class="participant participant-tail" data-participant="MakeUnique"><rect fill="#E2E2F0" height="31.6094" rx="2.5" ry="2.5" style="stroke:#181818;stroke-width:0.5;" width="265.5898" x="366.353" y="445.4766"/><text fill="#000000" font-family="sans-serif" font-size="14" lengthAdjust="spacing" textLength="251.5898" x="373.353" y="467.0098">std::make_unique&lt;GifImage&gt; @ 0x1100</text></g><g class="participant participant-head" data-participant="GifCtor"><rect fill="#E2E2F0" height="31.6094" rx="2.5" ry="2.5" style="stroke:#181818;stroke-width:0.5;" width="377.624" x="641.9429" y="50"/><text fill="#000000" font-family="sans-serif" font-size="14" lengthAdjust="spacing" textLength="363.624" x="648.9429" y="71.5332">GifImage::GifImage(const char*, unsigned long) @ 0x1200</text></g><g class="participant participant-tail" data-participant="GifCtor"><rect fill="#E2E2F0" height="31.6094" rx="2.5" ry="2.5" style="stroke:#181818;stroke-width:0.5;" width="377.624" x="641.9429" y="445.4766"/><text fill="#000000" font-family="sans-serif" font-size="14" lengthAdjust="spacing" textLength="363.624" x="648.9429" y="467.0098">GifImage::GifImage(const char*, unsigned long) @ 0x1200</text></g><g class="participant participant-head" data-participant="UniquePtr"><rect fill="#E2E2F0" height="31.6094" rx="2.5" ry="2.5" style="stroke:#181818;stroke-width:0.5;" width="247.6934" x="1029.5669" y="50"/><text fill="#000000" font-family="sans-serif" font-size="14" lengthAdjust="spacing" textLength="233.6934" x="1036.5669" y="71.5332">std::unique_ptr&lt;GifImage&gt; @ 0x1300</text></g><g class="participant participant-tail" data-participant="UniquePtr"><rect fill="#E2E2F0" height="31.6094" rx="2.5" ry="2.5" style="stroke:#181818;stroke-width:0.5;" width="247.6934" x="1029.5669" y="445.4766"/><text fill="#000000" font-family="sans-serif" font-size="14" lengthAdjust="spacing" textLength="233.6934" x="1036.5669" y="467.0098">std::unique_ptr&lt;GifImage&gt; @ 0x1300</text></g><g class="message" data-participant-1="main" data-participant-2="GetGif"><polygon fill="#181818" points="246.2129,113.9609,256.2129,117.9609,246.2129,121.9609,250.2129,117.9609" style="stroke:#181818;stroke-width:1;"/><line style="stroke:#181818;stroke-width:1;" x1="23.1724" x2="252.2129" y1="117.9609" y2="117.9609"/><text fill="#000000" font-family="sans-serif" font-size="13" lengthAdjust="spacing" textLength="69.3418" x="30.1724" y="113.1045">call GetGif()</text></g><path d="M263,97.6094 L263,123.6094 L435,123.6094 L435,107.6094 L425,97.6094 L263,97.6094" fill="#FEFFDD" style="stroke:#181818;stroke-width:0.5;"/><path d="M425,97.6094 L425,107.6094 L435,107.6094 L425,97.6094" fill="#FEFFDD" style="stroke:#181818;stroke-width:0.5;"/><text fill="#000000" font-family="sans-serif" font-size="13" lengthAdjust="spacing" textLength="151.0234" x="269" y="116.1045">Stack frame at 0x7ffc1000</text><g class="message" data-participant-1="GetGif" data-participant-2="MakeUnique"><polygon fill="#181818" points="487.1479,150.3125,497.1479,154.3125,487.1479,158.3125,491.1479,154.3125" style="stroke:#181818;stroke-width:1;"/><line style="stroke:#181818;stroke-width:1;" x1="258.2129" x2="493.1479" y1="154.3125" y2="154.3125"/><text fill="#000000" font-family="sans-serif" font-size="13" lengthAdjust="spacing" textLength="201.4365" x="265.2129" y="149.4561">call std::make_unique("GIF89a", 6)</text></g><path d="M504,133.9609 L504,159.9609 L690,159.9609 L690,143.9609 L680,133.9609 L504,133.9609" fill="#FEFFDD" style="stroke:#181818;stroke-width:0.5;"/><path d="M680,133.9609 L680,143.9609 L690,143.9609 L680,133.9609" fill="#FEFFDD" style="stroke:#181818;stroke-width:0.5;"/><text fill="#000000" font-family="sans-serif" font-size="13" lengthAdjust="spacing" textLength="165.3247" x="510" y="152.4561">Data "GIF89a" at 0x7ffc1022</text><g class="message" data-participant-1="MakeUnique" data-participant-2="GifCtor"><polygon fill="#181818" points="818.7549,186.6641,828.7549,190.6641,818.7549,194.6641,822.7549,190.6641" style="stroke:#181818;stroke-width:1;"/><line style="stroke:#181818;stroke-width:1;" x1="499.1479" x2="824.7549" y1="190.6641" y2="190.6641"/><text fill="#000000" font-family="sans-serif" font-size="13" lengthAdjust="spacing" textLength="286.146" x="506.1479" y="185.8076">call GifImage::GifImage(data=0x7ffc1022, size=6)</text></g><path d="M835,170.3125 L835,196.3125 L1020,196.3125 L1020,180.3125 L1010,170.3125 L835,170.3125" fill="#FEFFDD" style="stroke:#181818;stroke-width:0.5;"/><path d="M1010,170.3125 L1010,180.3125 L1020,180.3125 L1010,170.3125" fill="#FEFFDD" style="stroke:#181818;stroke-width:0.5;"/><text fill="#000000" font-family="sans-serif" font-size="13" lengthAdjust="spacing" textLength="164.7788" x="841" y="188.8076">Allocates buffer at 0x601000</text><g class="message" data-participant-1="GifCtor" data-participant-2="MakeUnique"><polygon fill="#181818" points="510.1479,220.0156,500.1479,224.0156,510.1479,228.0156,506.1479,224.0156" style="stroke:#181818;stroke-width:1;"/><line style="stroke:#181818;stroke-width:1;stroke-dasharray:2.0,2.0;" x1="504.1479" x2="829.7549" y1="224.0156" y2="224.0156"/><text fill="#000000" font-family="sans-serif" font-size="13" lengthAdjust="spacing" textLength="294.8232" x="516.1479" y="219.1592">returns GifImage* at 0x601010 (object constructed)</text></g><g class="message" data-participant-1="MakeUnique" data-participant-2="GetGif"><polygon fill="#181818" points="269.2129,250.3672,259.2129,254.3672,269.2129,258.3672,265.2129,254.3672" style="stroke:#181818;stroke-width:1;"/><line style="stroke:#181818;stroke-width:1;stroke-dasharray:2.0,2.0;" x1="263.2129" x2="498.1479" y1="254.3672" y2="254.3672"/><text fill="#000000" font-family="sans-serif" font-size="13" lengthAdjust="spacing" textLength="211.0405" x="275.2129" y="249.5107">returns unique_ptr owning 0x601010</text></g><g class="message" data-participant-1="GetGif" data-participant-2="UniquePtr"><polygon fill="#181818" points="1141.4136,280.7188,1151.4136,284.7188,1141.4136,288.7188,1145.4136,284.7188" style="stroke:#181818;stroke-width:1;"/><line style="stroke:#181818;stroke-width:1;" x1="258.2129" x2="1147.4136" y1="284.7188" y2="284.7188"/><text fill="#000000" font-family="sans-serif" font-size="13" lengthAdjust="spacing" textLength="96.8398" x="265.2129" y="279.8623">move unique_ptr</text></g><g class="message" data-participant-1="UniquePtr" data-participant-2="GetGif"><polygon fill="#181818" points="269.2129,311.0703,259.2129,315.0703,269.2129,319.0703,265.2129,315.0703" style="stroke:#181818;stroke-width:1;"/><line style="stroke:#181818;stroke-width:1;stroke-dasharray:2.0,2.0;" x1="263.2129" x2="1152.4136" y1="315.0703" y2="315.0703"/><text fill="#000000" font-family="sans-serif" font-size="13" lengthAdjust="spacing" textLength="125.728" x="275.2129" y="310.2139">ownership transferred</text></g><g class="message" data-participant-1="GetGif" data-participant-2="main"><polygon fill="#181818" points="34.1724,341.4219,24.1724,345.4219,34.1724,349.4219,30.1724,345.4219" style="stroke:#181818;stroke-width:1;"/><line style="stroke:#181818;stroke-width:1;stroke-dasharray:2.0,2.0;" x1="28.1724" x2="257.2129" y1="345.4219" y2="345.4219"/><text fill="#000000" font-family="sans-serif" font-size="13" lengthAdjust="spacing" textLength="211.0405" x="40.1724" y="340.5654">returns unique_ptr owning 0x601010</text></g><g class="message" data-participant-1="main" data-participant-2="UniquePtr"><polygon fill="#181818" points="1141.4136,371.7734,1151.4136,375.7734,1141.4136,379.7734,1145.4136,375.7734" style="stroke:#181818;stroke-width:1;"/><line style="stroke:#181818;stroke-width:1;" x1="23.1724" x2="1147.4136" y1="375.7734" y2="375.7734"/><text fill="#000000" font-family="sans-serif" font-size="13" lengthAdjust="spacing" textLength="194.4033" x="30.1724" y="370.917">use GifImage-&gt;buffer = 0x601000</text></g><g class="message" data-participant-1="main" data-participant-2="UniquePtr"><polygon fill="#181818" points="1141.4136,413.3008,1151.4136,417.3008,1141.4136,421.3008,1145.4136,417.3008" style="stroke:#181818;stroke-width:1;"/><line style="stroke:#181818;stroke-width:1;" x1="23.1724" x2="1147.4136" y1="417.3008" y2="417.3008"/><text fill="#000000" font-family="sans-serif" font-size="13" lengthAdjust="spacing" textLength="122.1416" x="30.1724" y="412.4443">unique_ptr destroyed</text></g><path d="M1158,388.7734 L1158,430.7734 L1344,430.7734 L1344,398.7734 L1334,388.7734 L1158,388.7734" fill="#FEFFDD" style="stroke:#181818;stroke-width:0.5;"/><path d="M1334,388.7734 L1334,398.7734 L1344,398.7734 L1334,388.7734" fill="#FEFFDD" style="stroke:#181818;stroke-width:0.5;"/><text fill="#000000" font-family="sans-serif" font-size="13" lengthAdjust="spacing" textLength="165.0771" x="1164" y="407.2686">Calls GifImage::~GifImage(),</text><text fill="#000000" font-family="sans-serif" font-size="13" lengthAdjust="spacing" textLength="153.9497" x="1167.6118" y="423.6201">deletes buffer at 0x601000</text><!--SRC=[ZL9BQzj04BxhLmm-sS46sOMa5RLfIOd9eH08lGN2P3MIjv5sdTrH7pdajsTiFNQZkD2RLZlVOxvlKR5rKACsoHuTQwNtQ1WcMrrSrrXIbcs9vJ2TmHT8_opJD9q0UcZ_liLuphEinaUwRun-QkXpJx9fiSiE-rr6VXmd_gdPVKsLDPv1xT2TpQ4nNfU6SgYiAJi_gzwFBYvbanE6MY_tUtPZFnywRElbXbsI78A0nQPR3p9GM5KmH029iKpWTBdZ36uPrICK3ci2P66yA0frI4ZcEWAX2jlsTEESffFjzTN7JpYPm_bOunioGdyVgwnMCXbn7qot6GoktyUP2ziwCCp1wsTQlnFzMbLM8PE7XwOeoBMwvsc_MwUp66_dY1jd_A1y5e3B5ARsuISfQVFGgMiKKpuRxH0dtvE5_i3-DjgKWJ6EUIXHeBNzHJ4Ead3xHaC8oVcTtWCxD5vMTVAy0gtC7b_4_xW9ZoUsqdWQubXikZZNSPedKK4b9mdB_ZtQYZkwb8fzrF7BKF9iVcS4Lj7f0fDN]--></g></svg>