<svg xmlns="http://www.w3.org/2000/svg" xmlns:xlink="http://www.w3.org/1999/xlink" contentStyleType="text/css" data-diagram-type="SEQUENCE" height="577px" preserveAspectRatio="none" style="width:856px;height:577px;background:#FFFFFF;" version="1.1" viewBox="0 0 856 577" width="856px" zoomAndPan="magnify"><defs/><g><g><title>main</title><rect fill="#000000" fill-opacity="0.00000" height="412.9219" width="8" x="19.1724" y="82.6094"/><line style="stroke:#181818;stroke-width:0.5;stroke-dasharray:5.0,5.0;" x1="23" x2="23" y1="82.6094" y2="495.5313"/></g><g><title>GifImage::GetGif() @0x1000</title><rect fill="#000000" fill-opacity="0.00000" height="412.9219" width="8" x="312.6875" y="82.6094"/><line style="stroke:#181818;stroke-width:0.5;stroke-dasharray:5.0,5.0;" x1="316.4922" x2="316.4922" y1="82.6094" y2="495.5313"/></g><g><title>GifImage gif_obj @0x7ffc2020</title><rect fill="#000000" fill-opacity="0.00000" height="412.9219" width="8" x="608.9321" y="82.6094"/><line style="stroke:#181818;stroke-width:0.5;stroke-dasharray:5.0,5.0;" x1="612.6611" x2="612.6611" y1="82.6094" y2="495.5313"/></g><g class="participant participant-head" data-participant="main"><text fill="#000000" font-family="sans-serif" font-size="14" lengthAdjust="spacing" textLength="30.3447" x="5" y="79.5332">main</text><ellipse cx="23.1724" cy="13.5" fill="#E2E2F0" rx="8" ry="8" style="stroke:#181818;stroke-width:0.5;"/><path d="M23.1724,21.5 L23.1724,48.5 M10.1724,29.5 L36.1724,29.5 M23.1724,48.5 L10.1724,63.5 M23.1724,48.5 L36.1724,63.5" fill="none" style="stroke:#181818;stroke-width:0.5;"/></g><g class="participant participant-tail" data-participant="main"><text fill="#000000" font-family="sans-serif" font-size="14" lengthAdjust="spacing" textLength="30.3447" x="5" y="509.0645">main</text><ellipse cx="23.1724" cy="520.6406" fill="#E2E2F0" rx="8" ry="8" style="stroke:#181818;stroke-width:0.5;"/><path d="M23.1724,528.6406 L23.1724,555.6406 M10.1724,536.6406 L36.1724,536.6406 M23.1724,555.6406 L10.1724,570.6406 M23.1724,555.6406 L36.1724,570.6406" fill="none" style="stroke:#181818;stroke-width:0.5;"/></g><g class="participant participant-head" data-participant="GetGif"><rect fill="#E2E2F0" height="31.6094" rx="2.5" ry="2.5" style="stroke:#181818;stroke-width:0.5;" width="192.3906" x="220.4922" y="50"/><text fill="#000000" font-family="sans-serif" font-size="14" lengthAdjust="spacing" textLength="178.3906" x="227.4922" y="71.5332">GifImage::GetGif() @0x1000</text></g><g class="participant participant-tail" data-participant="GetGif"><rect fill="#E2E2F0" height="31.6094" rx="2.5" ry="2.5" style="stroke:#181818;stroke-width:0.5;" width="192.3906" x="220.4922" y="494.5313"/><text fill="#000000" font-family="sans-serif" font-size="14" lengthAdjust="spacing" textLength="178.3906" x="227.4922" y="516.0645">GifImage::GetGif() @0x1000</text></g><g class="participant participant-head" data-participant="GifObj"><rect fill="#E2E2F0" height="31.6094" rx="2.5" ry="2.5" style="stroke:#181818;stroke-width:0.5;" width="202.542" x="511.6611" y="50"/><text fill="#000000" font-family="sans-serif" font-size="14" lengthAdjust="spacing" textLength="188.542" x="518.6611" y="71.5332">GifImage gif_obj @0x7ffc2020</text></g><g class="participant participant-tail" data-participant="GifObj"><rect fill="#E2E2F0" height="31.6094" rx="2.5" ry="2.5" style="stroke:#181818;stroke-width:0.5;" width="202.542" x="511.6611" y="494.5313"/><text fill="#000000" font-family="sans-serif" font-size="14" lengthAdjust="spacing" textLength="188.542" x="518.6611" y="516.0645">GifImage gif_obj @0x7ffc2020</text></g><g class="message" data-participant-1="main" data-participant-2="GetGif"><polygon fill="#181818" points="304.6875,110.9609,314.6875,114.9609,304.6875,118.9609,308.6875,114.9609" style="stroke:#181818;stroke-width:1;"/><line style="stroke:#181818;stroke-width:1;" x1="23.1724" x2="310.6875" y1="114.9609" y2="114.9609"/><text fill="#000000" font-family="sans-serif" font-size="13" lengthAdjust="spacing" textLength="196.7329" x="30.1724" y="110.1045">call GetGif(&amp;gif_obj @0x7ffc2020)</text></g><path d="M28,127.9609 L28,153.9609 L353,153.9609 L353,137.9609 L343,127.9609 L28,127.9609" fill="#FEFFDD" style="stroke:#181818;stroke-width:0.5;"/><path d="M343,127.9609 L343,137.9609 L353,137.9609 L343,127.9609" fill="#FEFFDD" style="stroke:#181818;stroke-width:0.5;"/><text fill="#000000" font-family="sans-serif" font-size="13" lengthAdjust="spacing" textLength="304.9668" x="34" y="146.4561">Hidden return pointer passed:\n&amp;gif_obj (0x7ffc2020)</text><g class="message" data-participant-1="GetGif" data-participant-2="GifObj"><polygon fill="#181818" points="600.9321,177.6641,610.9321,181.6641,600.9321,185.6641,604.9321,181.6641" style="stroke:#181818;stroke-width:1;"/><line style="stroke:#181818;stroke-width:1;" x1="316.6875" x2="606.9321" y1="181.6641" y2="181.6641"/><text fill="#000000" font-family="sans-serif" font-size="13" lengthAdjust="spacing" textLength="272.2446" x="323.6875" y="176.8076">GifImage::GifImage(data @0x7ffc2022, size=6)</text></g><path d="M617,194.6641 L617,253.6641 L849,253.6641 L849,204.6641 L839,194.6641 L617,194.6641" fill="#FEFFDD" style="stroke:#181818;stroke-width:0.5;"/><path d="M839,194.6641 L839,204.6641 L849,204.6641 L839,194.6641" fill="#FEFFDD" style="stroke:#181818;stroke-width:0.5;"/><text fill="#000000" font-family="sans-serif" font-size="13" lengthAdjust="spacing" textLength="211.7388" x="623" y="213.1592">Constructed in-place at 0x7ffc2020\n</text><text fill="#000000" font-family="sans-serif" font-size="13" lengthAdjust="spacing" textLength="203.6328" x="623" y="229.5107">buffer = new char[6] @ 0x601000\n</text><text fill="#000000" font-family="sans-serif" font-size="13" lengthAdjust="spacing" textLength="166.7402" x="623" y="245.8623">memcpy "GIF89a" into buffer</text><g class="message" data-participant-1="GetGif" data-participant-2="main"><polygon fill="#181818" points="34.1724,277.0703,24.1724,281.0703,34.1724,285.0703,30.1724,281.0703" style="stroke:#181818;stroke-width:1;"/><line style="stroke:#181818;stroke-width:1;stroke-dasharray:2.0,2.0;" x1="28.1724" x2="315.6875" y1="281.0703" y2="281.0703"/><text fill="#000000" font-family="sans-serif" font-size="13" lengthAdjust="spacing" textLength="269.5151" x="40.1724" y="276.2139">return (void, object constructed in caller space)</text></g><g class="message" data-participant-1="main" data-participant-2="GifObj"><polygon fill="#181818" points="600.9321,307.4219,610.9321,311.4219,600.9321,315.4219,604.9321,311.4219" style="stroke:#181818;stroke-width:1;"/><line style="stroke:#181818;stroke-width:1;" x1="23.1724" x2="606.9321" y1="311.4219" y2="311.4219"/><text fill="#000000" font-family="sans-serif" font-size="13" lengthAdjust="spacing" textLength="62.8799" x="30.1724" y="306.5654">use gif_obj</text></g><path d="M617,324.4219 L617,366.4219 L795,366.4219 L795,334.4219 L785,324.4219 L617,324.4219" fill="#FEFFDD" style="stroke:#181818;stroke-width:0.5;"/><path d="M785,324.4219 L785,334.4219 L795,334.4219 L785,324.4219" fill="#FEFFDD" style="stroke:#181818;stroke-width:0.5;"/><text fill="#000000" font-family="sans-serif" font-size="13" lengthAdjust="spacing" textLength="157.9297" x="623" y="342.917">gif_obj.buffer = 0x601000\n</text><text fill="#000000" font-family="sans-serif" font-size="13" lengthAdjust="spacing" textLength="87.0835" x="623" y="359.2686">gif_obj.size = 6</text><g class="message" data-participant-1="main" data-participant-2="GifObj"><polygon fill="#181818" points="600.9321,390.4766,610.9321,394.4766,600.9321,398.4766,604.9321,394.4766" style="stroke:#181818;stroke-width:1;"/><line style="stroke:#181818;stroke-width:1;" x1="23.1724" x2="606.9321" y1="394.4766" y2="394.4766"/><text fill="#000000" font-family="sans-serif" font-size="13" lengthAdjust="spacing" textLength="68.9927" x="30.1724" y="389.6201">~GifImage()</text></g><path d="M617,407.4766 L617,449.4766 L833,449.4766 L833,417.4766 L823,407.4766 L617,407.4766" fill="#FEFFDD" style="stroke:#181818;stroke-width:0.5;"/><path d="M823,407.4766 L823,417.4766 L833,417.4766 L823,407.4766" fill="#FEFFDD" style="stroke:#181818;stroke-width:0.5;"/><text fill="#000000" font-family="sans-serif" font-size="13" lengthAdjust="spacing" textLength="154.6733" x="623" y="425.9717">delete[] buffer at 0x601000</text><text fill="#000000" font-family="sans-serif" font-size="13" lengthAdjust="spacing" textLength="195.1079" x="623" y="442.3232">no delete for gif_obj (stack object)</text><g class="message" data-participant-1="main" data-participant-2="main"><polygon fill="#181818" points="842.7388,473.5313,852.7388,477.5313,842.7388,481.5313,846.7388,477.5313" style="stroke:#181818;stroke-width:1;"/><line style="stroke:#181818;stroke-width:1;stroke-dasharray:2.0,2.0;" x1="23.1724" x2="848.7388" y1="477.5313" y2="477.5313"/><text fill="#000000" font-family="sans-serif" font-size="13" lengthAdjust="spacing" textLength="44.8018" x="30.1724" y="472.6748">return 6</text></g><!--SRC=[TP9BRi8m443tESM8HPL8KAKiqZOI5LAbKbOz0A3As6CmJUp8dlItwDdh19E60hiuytlpRCR9M2YPqb75B2ckAgO91ZCbvoNRO9xFaFmXJc2QVjwaQJe0vc3_ytm9R9HyDUjTKt0h9H-dur2avCjw5qNDD1WzX2QG0sT54KxnrPdg9DA64ApQR0cCtEC2F2iXK8D5ggs6oYXDQA5Ypg78bxhh5FSxeHRGT8kYCBu1QS4yI6_hy1KBHgp7CXw2KzyuoVupXUK07ersP6jEA43fKLKmZi08_Y2M3VowbjBJJa3Z1_0jiuji1LEVbQMDvJQdn99NNzxi_EdkdWryEpAXyCmUVf7MR7um4hyR9ORW5I0du4TShNC_trKUB-dToK55xRgBlBHf25ztgnp17wADBX_BUiGdmtuwtHUr2YoGSB4wY6kDxiVvg3OX0QH_pjt5EsByBGX8JW0yGUSg-mK0]--></g></svg>